<?xml version="1.0" encoding="UTF-8" standalone="no"?>
<!DOCTYPE svg PUBLIC "-//W3C//DTD SVG 1.1//EN"
 "http://www.w3.org/Graphics/SVG/1.1/DTD/svg11.dtd">
<!-- Generated by graphviz version 2.43.0 (0)
 -->
<!-- Title: %3 Pages: 1 -->
<svg width="1704pt" height="320pt"
 viewBox="0.00 0.00 1704.00 320.00" xmlns="http://www.w3.org/2000/svg" xmlns:xlink="http://www.w3.org/1999/xlink">
<g id="graph0" class="graph" transform="scale(1 1) rotate(0) translate(36 284)">
<title>%3</title>
<polygon fill="white" stroke="transparent" points="-36,36 -36,-284 1668,-284 1668,36 -36,36"/>
<!-- httpsdataligatusorgukstcatherinesms780c99acb3ee4b219e4832b53a721830 -->
<g id="node1" class="node">
<title>httpsdataligatusorgukstcatherinesms780c99acb3ee4b219e4832b53a721830</title>
<polygon fill="#e1ba9c" stroke="transparent" points="0,-130 0,-174 216,-174 216,-130 0,-130"/>
<polygon fill="none" stroke="black" points="0,-130 0,-174 216,-174 216,-130 0,-130"/>
<text text-anchor="start" x="87.5" y="-152.8" font-family="Ubuntu" font-size="14.00">Arabic</text>
<text text-anchor="start" x="11" y="-143.6" font-family="FreeMono" font-size="8.00">stcath:780c99ac&#45;b3ee&#45;4b21&#45;9e48&#45;32b53a721830</text>
<polygon fill="#e1ba9c" stroke="transparent" points="0,-86 0,-130 216,-130 216,-86 0,-86"/>
<polygon fill="none" stroke="black" points="0,-86 0,-130 216,-130 216,-86 0,-86"/>
<text text-anchor="start" x="77.5" y="-108.8" font-family="Ubuntu" font-style="italic" font-size="14.00">Collection</text>
<text text-anchor="start" x="67" y="-99.6" font-family="FreeMono" font-size="8.00">crm:E78_Collection</text>
</g>
<!-- httpsdataligatusorgukstcatherinesms780c99acb3ee4b219e4832b53a721830httpwwwcidoccrmorgcidoccrmP46_is_composed_ofhttpsdataligatusorgukstcatherinesms961e50ea2895472e94aeb69ff8c2e56d -->
<g id="node5" class="node">
<title>httpsdataligatusorgukstcatherinesms780c99acb3ee4b219e4832b53a721830httpwwwcidoccrmorgcidoccrmP46_is_composed_ofhttpsdataligatusorgukstcatherinesms961e50ea2895472e94aeb69ff8c2e56d</title>
<polygon fill="white" stroke="transparent" points="398,-150 398,-169 502,-169 502,-150 398,-150"/>
<text text-anchor="start" x="403" y="-155.8" font-family="Ubuntu" font-size="14.00">is composed of</text>
<polygon fill="white" stroke="transparent" points="398,-135 398,-148 502,-148 502,-135 398,-135"/>
<text text-anchor="start" x="400" y="-139.6" font-family="FreeMono" font-size="8.00">crm:P46_is_composed_of</text>
</g>
<!-- httpsdataligatusorgukstcatherinesms780c99acb3ee4b219e4832b53a721830&#45;&gt;httpsdataligatusorgukstcatherinesms780c99acb3ee4b219e4832b53a721830httpwwwcidoccrmorgcidoccrmP46_is_composed_ofhttpsdataligatusorgukstcatherinesms961e50ea2895472e94aeb69ff8c2e56d -->
<g id="edge3" class="edge">
<title>httpsdataligatusorgukstcatherinesms780c99acb3ee4b219e4832b53a721830:e&#45;&gt;httpsdataligatusorgukstcatherinesms780c99acb3ee4b219e4832b53a721830httpwwwcidoccrmorgcidoccrmP46_is_composed_ofhttpsdataligatusorgukstcatherinesms961e50ea2895472e94aeb69ff8c2e56d</title>
<path fill="none" stroke="black" d="M216,-152C216,-152 327.07,-152 395.84,-152"/>
</g>
<!-- httpsdataligatusorgukstcatherinesms961e50ea2895472e94aeb69ff8c2e56dhttpwwwcidoccrmorgcidoccrmP2_has_typehttpw3idorglobconcept4886 -->
<g id="node2" class="node">
<title>httpsdataligatusorgukstcatherinesms961e50ea2895472e94aeb69ff8c2e56dhttpwwwcidoccrmorgcidoccrmP2_has_typehttpw3idorglobconcept4886</title>
<polygon fill="white" stroke="transparent" points="1122,-211 1122,-230 1194,-230 1194,-211 1122,-211"/>
<text text-anchor="start" x="1131" y="-216.8" font-family="Ubuntu" font-size="14.00">has type</text>
<polygon fill="white" stroke="transparent" points="1122,-196 1122,-209 1194,-209 1194,-196 1122,-196"/>
<text text-anchor="start" x="1124" y="-200.6" font-family="FreeMono" font-size="8.00">crm:P2_has_type</text>
</g>
<!-- httpw3idorglobconcept4886 -->
<g id="node4" class="node">
<title>httpw3idorglobconcept4886</title>
<polygon fill="#fab565" stroke="transparent" points="1441,-204 1441,-248 1608,-248 1608,-204 1441,-204"/>
<polygon fill="none" stroke="black" points="1441,-204 1441,-248 1608,-248 1608,-204 1441,-204"/>
<text text-anchor="start" x="1467" y="-226.8" font-family="Ubuntu" font-size="14.00">codex&#45;form books</text>
<text text-anchor="start" x="1452" y="-217.6" font-family="FreeMono" font-size="8.00">http://w3id.org/lob/concept/4886</text>
<polygon fill="#fab565" stroke="transparent" points="1441,-160 1441,-204 1608,-204 1608,-160 1441,-160"/>
<polygon fill="none" stroke="black" points="1441,-160 1441,-204 1608,-204 1608,-160 1441,-160"/>
<text text-anchor="start" x="1509.5" y="-182.8" font-family="Ubuntu" font-style="italic" font-size="14.00">Type</text>
<text text-anchor="start" x="1497" y="-173.6" font-family="FreeMono" font-size="8.00">crm:E55_Type</text>
</g>
<!-- httpsdataligatusorgukstcatherinesms961e50ea2895472e94aeb69ff8c2e56dhttpwwwcidoccrmorgcidoccrmP2_has_typehttpw3idorglobconcept4886&#45;&gt;httpw3idorglobconcept4886 -->
<g id="edge2" class="edge">
<title>httpsdataligatusorgukstcatherinesms961e50ea2895472e94aeb69ff8c2e56dhttpwwwcidoccrmorgcidoccrmP2_has_typehttpw3idorglobconcept4886&#45;&gt;httpw3idorglobconcept4886:w</title>
<path fill="none" stroke="black" d="M1196.02,-214.71C1261,-217.72 1392.24,-223.79 1429.76,-225.53"/>
<polygon fill="black" stroke="black" points="1429.85,-229.03 1440,-226 1430.17,-222.04 1429.85,-229.03"/>
</g>
<!-- httpsdataligatusorgukstcatherinesms961e50ea2895472e94aeb69ff8c2e56d -->
<g id="node3" class="node">
<title>httpsdataligatusorgukstcatherinesms961e50ea2895472e94aeb69ff8c2e56d</title>
<polygon fill="#e1ba9c" stroke="transparent" points="684,-130 684,-174 900,-174 900,-130 684,-130"/>
<polygon fill="none" stroke="black" points="684,-130 684,-174 900,-174 900,-130 684,-130"/>
<text text-anchor="start" x="749.5" y="-152.8" font-family="Ubuntu" font-size="14.00">Arabica 0001</text>
<text text-anchor="start" x="695" y="-143.6" font-family="FreeMono" font-size="8.00">stcath:961e50ea&#45;2895&#45;472e&#45;94ae&#45;b69ff8c2e56d</text>
<polygon fill="#e1ba9c" stroke="transparent" points="684,-86 684,-130 900,-130 900,-86 684,-86"/>
<polygon fill="none" stroke="black" points="684,-86 684,-130 900,-130 900,-86 684,-86"/>
<text text-anchor="start" x="737.5" y="-108.8" font-family="Ubuntu" font-style="italic" font-size="14.00">Man&#45;Made Object</text>
<text text-anchor="start" x="740" y="-99.6" font-family="FreeMono" font-size="8.00">crm:E22_Man&#45;Made_Object</text>
</g>
<!-- httpsdataligatusorgukstcatherinesms961e50ea2895472e94aeb69ff8c2e56d&#45;&gt;httpsdataligatusorgukstcatherinesms961e50ea2895472e94aeb69ff8c2e56dhttpwwwcidoccrmorgcidoccrmP2_has_typehttpw3idorglobconcept4886 -->
<g id="edge1" class="edge">
<title>httpsdataligatusorgukstcatherinesms961e50ea2895472e94aeb69ff8c2e56d:e&#45;&gt;httpsdataligatusorgukstcatherinesms961e50ea2895472e94aeb69ff8c2e56dhttpwwwcidoccrmorgcidoccrmP2_has_typehttpw3idorglobconcept4886</title>
<path fill="none" stroke="black" d="M900,-152C900,-152 1048.73,-187.3 1119.9,-204.2"/>
</g>
<!-- httpsdataligatusorgukstcatherinesms961e50ea2895472e94aeb69ff8c2e56dhttpwwwcidoccrmorgcidoccrmP48_has_preferred_identifierhttpsdataligatusorgukstcatherinesms5e8ede4e6a3f4726aa8d504741bb0154 -->
<g id="node6" class="node">
<title>httpsdataligatusorgukstcatherinesms961e50ea2895472e94aeb69ff8c2e56dhttpwwwcidoccrmorgcidoccrmP48_has_preferred_identifierhttpsdataligatusorgukstcatherinesms5e8ede4e6a3f4726aa8d504741bb0154</title>
<polygon fill="white" stroke="transparent" points="1082,-89 1082,-108 1234,-108 1234,-89 1082,-89"/>
<text text-anchor="start" x="1084" y="-94.8" font-family="Ubuntu" font-size="14.00">has preferred identifier</text>
<polygon fill="white" stroke="transparent" points="1082,-74 1082,-87 1234,-87 1234,-74 1082,-74"/>
<text text-anchor="start" x="1085.5" y="-78.6" font-family="FreeMono" font-size="8.00">crm:P48_has_preferred_identifier</text>
</g>
<!-- httpsdataligatusorgukstcatherinesms961e50ea2895472e94aeb69ff8c2e56d&#45;&gt;httpsdataligatusorgukstcatherinesms961e50ea2895472e94aeb69ff8c2e56dhttpwwwcidoccrmorgcidoccrmP48_has_preferred_identifierhttpsdataligatusorgukstcatherinesms5e8ede4e6a3f4726aa8d504741bb0154 -->
<g id="edge5" class="edge">
<title>httpsdataligatusorgukstcatherinesms961e50ea2895472e94aeb69ff8c2e56d:e&#45;&gt;httpsdataligatusorgukstcatherinesms961e50ea2895472e94aeb69ff8c2e56dhttpwwwcidoccrmorgcidoccrmP48_has_preferred_identifierhttpsdataligatusorgukstcatherinesms5e8ede4e6a3f4726aa8d504741bb0154</title>
<path fill="none" stroke="black" d="M900,-152C900,-152 1004.19,-127.27 1079.89,-109.3"/>
</g>
<!-- httpsdataligatusorgukstcatherinesms780c99acb3ee4b219e4832b53a721830httpwwwcidoccrmorgcidoccrmP46_is_composed_ofhttpsdataligatusorgukstcatherinesms961e50ea2895472e94aeb69ff8c2e56d&#45;&gt;httpsdataligatusorgukstcatherinesms961e50ea2895472e94aeb69ff8c2e56d -->
<g id="edge4" class="edge">
<title>httpsdataligatusorgukstcatherinesms780c99acb3ee4b219e4832b53a721830httpwwwcidoccrmorgcidoccrmP46_is_composed_ofhttpsdataligatusorgukstcatherinesms961e50ea2895472e94aeb69ff8c2e56d&#45;&gt;httpsdataligatusorgukstcatherinesms961e50ea2895472e94aeb69ff8c2e56d:w</title>
<path fill="none" stroke="black" d="M504.16,-152C560.31,-152 644.64,-152 673.72,-152"/>
<polygon fill="black" stroke="black" points="674,-155.5 684,-152 674,-148.5 674,-155.5"/>
</g>
<!-- httpsdataligatusorgukstcatherinesms5e8ede4e6a3f4726aa8d504741bb0154 -->
<g id="node7" class="node">
<title>httpsdataligatusorgukstcatherinesms5e8ede4e6a3f4726aa8d504741bb0154</title>
<polygon fill="#fffa40" stroke="transparent" points="1416,-44 1416,-88 1632,-88 1632,-44 1416,-44"/>
<polygon fill="none" stroke="black" points="1416,-44 1416,-88 1632,-88 1632,-44 1416,-44"/>
<text text-anchor="start" x="1444" y="-66.8" font-family="Ubuntu" font-size="14.00">Arabica 0001 (shelfmark)</text>
<text text-anchor="start" x="1427" y="-57.6" font-family="FreeMono" font-size="8.00">stcath:5e8ede4e&#45;6a3f&#45;4726&#45;aa8d&#45;504741bb0154</text>
<polygon fill="#fffa40" stroke="transparent" points="1416,0 1416,-44 1632,-44 1632,0 1416,0"/>
<polygon fill="none" stroke="black" points="1416,0 1416,-44 1632,-44 1632,0 1416,0"/>
<text text-anchor="start" x="1495" y="-22.8" font-family="Ubuntu" font-style="italic" font-size="14.00">Identifier</text>
<text text-anchor="start" x="1483" y="-13.6" font-family="FreeMono" font-size="8.00">crm:E42_Identifier</text>
</g>
<!-- httpsdataligatusorgukstcatherinesms961e50ea2895472e94aeb69ff8c2e56dhttpwwwcidoccrmorgcidoccrmP48_has_preferred_identifierhttpsdataligatusorgukstcatherinesms5e8ede4e6a3f4726aa8d504741bb0154&#45;&gt;httpsdataligatusorgukstcatherinesms5e8ede4e6a3f4726aa8d504741bb0154 -->
<g id="edge6" class="edge">
<title>httpsdataligatusorgukstcatherinesms961e50ea2895472e94aeb69ff8c2e56dhttpwwwcidoccrmorgcidoccrmP48_has_preferred_identifierhttpsdataligatusorgukstcatherinesms5e8ede4e6a3f4726aa8d504741bb0154&#45;&gt;httpsdataligatusorgukstcatherinesms5e8ede4e6a3f4726aa8d504741bb0154:w</title>
<path fill="none" stroke="black" d="M1236.11,-83.5C1297.62,-77.52 1377.93,-69.7 1405.89,-66.98"/>
<polygon fill="black" stroke="black" points="1406.39,-70.45 1416,-66 1405.71,-63.48 1406.39,-70.45"/>
</g>
</g>
</svg>
